PathFileType	4	(X/Y/Z)	1H_rest_med_left.trc
DataRate	CameraRate	NumFrames	NumMarkers	Units	OrigDataRate	OrigDataStartFrame	OrigNumFrames
250.00	250.00	12	18	mm	250.00	11740	23478
Frame#	Time	c7	r_should	l_should	clavicle	r_upa	r_elb_l	r_elb_m	r_low	r_wri_l	r_wri_m	r_met	l_upa	l_elb_l	l_elb_m	l_low	l_wri_l	l_wri_m	l_met
	X1	Y1	Z1	X2	Y2	Z2	X3	Y3	Z3	X4	Y4	Z4	X5	Y5	Z5	X6	Y6	Z6	X7	Y7	Z7	X8	Y8	Z8	X9	Y9	Z9	X10	Y10	Z10	X11	Y11	Z11	X12	Y12	Z12	X13	Y13	Z13	X14	Y14	Z14	X15	Y15	Z15	X16	Y16	Z16	X17	Y17	Z17	X18	Y18	Z18
11740	46.95600	640.77972	1419.59351	260.86044	696.52631	1361.74194	417.84134	694.69824	1370.63281	95.37152	777.46063	1285.71228	251.85553	695.32501	1156.26880	492.98621	689.33124	1067.65417	515.45142	636.65186	1033.28516	449.95523	741.53052	891.87610	500.06033	701.60907	806.10748	500.08105	764.84985	826.85828	470.09393	802.71649	749.66174	498.91278	673.81165	1185.92004	18.99095	673.52698	1086.89990	0.40351	649.00824	1044.80957	70.38906	776.41254	973.09485	-3.25370	845.24121	937.31342	25.02193	798.46545	878.10529	25.48642	909.39178	885.67426	-9.16850
11741	46.96000	640.80072	1419.58264	260.82510	696.57111	1361.75891	417.80093	694.65643	1370.62964	95.34816	777.47784	1285.71423	251.80598	695.34229	1156.29333	492.97906	689.32281	1067.68823	515.47662	636.63202	1033.30627	449.99594	741.48285	891.90277	500.12106	701.53223	806.10535	500.15057	764.78394	826.87537	470.16379	802.62732	749.66406	499.01163	673.77075	1185.94312	18.89269	673.52008	1087.03394	0.29235	649.13788	1044.86975	70.25626	777.02490	974.03058	-3.28611	845.98615	938.68225	25.03506	799.63763	879.21191	25.46160	910.58606	887.53607	-9.04679
11742	46.96400	640.82166	1419.57373	260.79294	696.61414	1361.76782	417.76483	694.61420	1370.62366	95.32558	777.49127	1285.71582	251.75574	695.37408	1156.33301	492.99680	689.33069	1067.73596	515.52185	636.62067	1033.34216	450.05145	741.43530	891.92566	500.18292	701.47510	806.14166	500.27286	764.71790	826.88031	470.22815	802.54565	749.66602	499.10938	673.75958	1185.97791	18.82642	673.55743	1087.19849	0.20269	649.29395	1044.95874	70.13367	777.65131	974.98468	-3.31254	846.75775	940.09949	25.05826	800.82104	880.35852	25.45432	911.77509	889.41150	-8.95438
11743	46.96800	640.84174	1419.57190	260.77219	696.65875	1361.77478	417.73260	694.57190	1370.62671	95.30582	777.49823	1285.70715	251.71542	695.41870	1156.38135	493.02328	689.35651	1067.79626	515.57971	636.62439	1033.40076	450.11557	741.39142	891.94629	500.24872	701.43304	806.21381	500.42511	764.65234	826.87762	470.29358	802.46808	749.66620	499.20364	673.77307	1186.02136	18.78026	673.63281	1087.38733	0.12645	649.49109	1045.06409	70.01733	778.26312	975.93213	-3.33737	847.49567	941.49078	25.10622	802.00006	881.51929	25.47211	912.95276	891.31232	-8.85081
11744	46.97200	640.86127	1419.57495	260.76242	696.70331	1361.78455	417.69946	694.53870	1370.63452	95.28546	777.50513	1285.69104	251.67503	695.46942	1156.43176	493.05194	689.38971	1067.86804	515.64465	636.64032	1033.47107	450.18454	741.35040	891.96179	500.32419	701.39764	806.30115	500.58054	764.58270	826.87128	470.37378	802.39941	749.66608	499.29523	673.80511	1186.08813	18.73583	673.72943	1087.59045	0.04941	649.70264	1045.18140	69.88907	778.87225	976.88324	-3.35202	848.26538	942.91425	25.16338	803.18677	882.69006	25.52950	914.14905	893.21851	-8.72146
11745	46.97600	640.88110	1419.58447	260.74930	696.74182	1361.79993	417.66714	694.50891	1370.65552	95.26586	777.50909	1285.68335	251.64088	695.50659	1156.48035	493.07083	689.42004	1067.93237	515.69635	636.65387	1033.53894	450.24194	741.31561	891.98022	500.40067	701.36304	806.38837	500.71252	764.52118	826.87183	470.46512	802.33990	749.67560	499.38055	673.83698	1186.18201	18.67041	673.81061	1087.78931	-0.04339	649.91022	1045.31152	69.73833	779.48669	977.84930	-3.38097	849.01276	944.32135	25.21871	804.39545	883.85107	25.53778	915.33868	895.14014	-8.61325
11746	46.98000	640.90039	1419.60413	260.72089	696.78381	1361.82092	417.62219	694.47028	1370.68604	95.23888	777.51562	1285.68140	251.60558	695.53784	1156.52209	493.07013	689.43958	1067.98425	515.71936	636.66486	1033.59180	450.27734	741.29138	892.00305	500.46991	701.32727	806.45111	500.79922	764.47461	826.88031	470.54288	802.28516	749.69171	499.46362	673.84161	1186.25806	18.57594	673.86755	1087.96997	-0.16370	650.11407	1045.43530	69.56358	780.11322	978.80377	-3.40379	849.72009	945.72748	25.25289	805.59399	885.03387	25.51030	916.50195	897.07764	-8.52562
11747	46.98400	640.92444	1419.62854	260.68491	696.82471	1361.84668	417.57880	694.42749	1370.72400	95.21153	777.52722	1285.68481	251.56561	695.56573	1156.55078	493.05426	689.45105	1068.02271	515.72351	636.67133	1033.62659	450.28970	741.28082	892.02783	500.54037	701.29004	806.47485	500.84598	764.44629	826.89789	470.61838	802.24652	749.71899	499.53836	673.81793	1186.30225	18.46850	673.90814	1088.13818	-0.30386	650.28955	1045.54663	69.36468	780.73645	979.77405	-3.41725	850.41986	947.12244	25.29611	806.73364	886.20862	25.45659	917.67218	899.03461	-8.45868
11748	46.98800	640.94550	1419.65063	260.65005	696.86310	1361.86560	417.53882	694.38843	1370.75708	95.18797	777.54279	1285.68945	251.52838	695.59369	1156.56860	493.02933	689.46185	1068.04224	515.71930	636.66711	1033.63794	450.30585	741.28247	892.05414	500.61029	701.25208	806.46954	500.87463	764.42920	826.90924	470.68903	802.22229	749.73975	499.61508	673.78375	1186.32678	18.35901	673.94867	1088.29395	-0.45670	650.44000	1045.63184	69.16125	781.35980	980.74976	-3.42875	851.16144	948.65564	25.24174	807.93738	887.34680	25.50574	918.83990	901.00922	-8.36102
11749	46.99200	640.95630	1419.66455	260.62964	696.89807	1361.86914	417.50079	694.34784	1370.78320	95.16855	777.56219	1285.69470	251.48758	695.62756	1156.57812	493.00668	689.47803	1068.05396	515.72174	636.66528	1033.63403	450.33878	741.29205	892.08313	500.67438	701.22144	806.45435	500.90820	764.42462	826.92932	470.76141	802.20654	749.75513	499.68961	673.76825	1186.35974	18.26362	674.00842	1088.45459	-0.60875	650.58734	1045.69885	68.96720	781.99634	981.74261	-3.45881	851.96112	950.38342	25.05259	809.32166	888.44928	25.81286	919.99091	902.94965	-8.22777
11750	46.99600	640.96448	1419.66418	260.60944	696.93329	1361.86719	417.46414	694.30316	1370.79578	95.15539	777.58374	1285.70178	251.44487	695.66974	1156.58911	492.99628	689.51025	1068.07556	515.73236	636.66406	1033.63806	450.38400	741.30811	892.11230	500.73206	701.20172	806.45154	500.97079	764.43604	826.96143	470.83511	802.19342	749.76587	499.76617	673.76599	1186.40857	18.17178	674.08636	1088.62598	-0.76061	650.73102	1045.77051	68.79036	782.63306	982.74548	-3.50019	852.70404	951.91058	25.03222	810.56152	889.62616	25.91281	921.12042	904.88684	-8.09473
11751	47.00000	640.97485	1419.66455	260.59491	696.97089	1361.86768	417.43457	694.25262	1370.80554	95.15073	777.60333	1285.70752	251.39653	695.73389	1156.61426	493.00610	689.56696	1068.11047	515.76434	636.67853	1033.66272	450.44971	741.33423	892.14087	500.78290	701.20465	806.47522	501.07230	764.46082	826.99005	470.89874	802.19000	749.77515	499.84299	673.78003	1186.47839	18.08295	674.19812	1088.81909	-0.90009	650.90106	1045.85938	68.62765	783.19458	983.56500	-3.70216	853.31964	953.25024	25.09912	811.78534	890.85315	25.95072	922.24481	906.83472	-7.98304
